<svg width="85" height="79" viewBox="0 0 85 79" fill="none" xmlns="http://www.w3.org/2000/svg">
<g filter="url(#filter0_d)">
<ellipse cx="42.5" cy="36.5" rx="30.5" ry="27.5" fill="white"/>
</g>
<path d="M42.5 18C31.7305 18 23 24.7507 23 33.0781C23 35.863 23.705 38.7394 25.728 40.8125L42.5 58L59.272 40.8125C61.1095 38.9295 62 35.6006 62 33.0781C62 24.7507 53.2696 18 42.5 18ZM42.5 26.7329C47.0314 26.7329 50.706 29.5743 50.706 33.0781C50.706 36.582 47.0314 39.4233 42.5 39.4233C37.9686 39.4233 34.294 36.582 34.294 33.0781C34.294 29.5743 37.9686 26.7329 42.5 26.7329Z" fill="#4E6E79"/>
<defs>
<filter id="filter0_d" x="0" y="0" width="85" height="79" filterUnits="userSpaceOnUse" color-interpolation-filters="sRGB">
<feFlood flood-opacity="0" result="BackgroundImageFix"/>
<feColorMatrix in="SourceAlpha" type="matrix" values="0 0 0 0 0 0 0 0 0 0 0 0 0 0 0 0 0 0 127 0" result="hardAlpha"/>
<feMorphology radius="2" operator="dilate" in="SourceAlpha" result="effect1_dropShadow"/>
<feOffset dy="3"/>
<feGaussianBlur stdDeviation="5"/>
<feComposite in2="hardAlpha" operator="out"/>
<feColorMatrix type="matrix" values="0 0 0 0 0 0 0 0 0 0 0 0 0 0 0 0 0 0 0.25 0"/>
<feBlend mode="normal" in2="BackgroundImageFix" result="effect1_dropShadow"/>
<feBlend mode="normal" in="SourceGraphic" in2="effect1_dropShadow" result="shape"/>
</filter>
</defs>
</svg>
