<svg width="40" height="39" viewBox="0 0 40 39" fill="none" xmlns="http://www.w3.org/2000/svg">
<g filter="url(#filter0_d)">
<path d="M17.9957 12.3311C15.0578 12.3311 12.6602 14.6538 12.6602 17.5C12.6602 20.3462 15.0578 22.6689 17.9957 22.6689C20.9336 22.6689 23.3312 20.3462 23.3312 17.5C23.3312 14.6538 20.9336 12.3311 17.9957 12.3311ZM33.9982 17.5C33.9982 15.3596 34.0182 13.2385 33.8941 11.1019C33.7701 8.62025 33.1857 6.41776 31.3125 4.60304C29.4352 2.78443 27.1657 2.22218 24.604 2.10197C22.3946 1.98177 20.2052 2.00115 17.9997 2.00115C15.7902 2.00115 13.6008 1.98177 11.3954 2.10197C8.83368 2.22218 6.56019 2.78831 4.68696 4.60304C2.80972 6.42164 2.22934 8.62025 2.10526 11.1019C1.98118 13.2424 2.00119 15.3634 2.00119 17.5C2.00119 19.6366 1.98118 21.7615 2.10526 23.8981C2.22934 26.3797 2.81372 28.5822 4.68696 30.397C6.56419 32.2156 8.83368 32.7778 11.3954 32.898C13.6048 33.0182 15.7943 32.9988 17.9997 32.9988C20.2092 32.9988 22.3986 33.0182 24.604 32.898C27.1657 32.7778 29.4392 32.2117 31.3125 30.397C33.1897 28.5784 33.7701 26.3797 33.8941 23.8981C34.0222 21.7615 33.9982 19.6404 33.9982 17.5ZM17.9957 25.453C13.4527 25.453 9.78631 21.9011 9.78631 17.5C9.78631 13.0989 13.4527 9.547 17.9957 9.547C22.5387 9.547 26.2051 13.0989 26.2051 17.5C26.2051 21.9011 22.5387 25.453 17.9957 25.453ZM26.5413 11.0787C25.4806 11.0787 24.6241 10.2489 24.6241 9.22128C24.6241 8.19371 25.4806 7.3639 26.5413 7.3639C27.602 7.3639 28.4586 8.19371 28.4586 9.22128C28.4589 9.46528 28.4095 9.70695 28.3133 9.93243C28.217 10.1579 28.0758 10.3628 27.8977 10.5353C27.7196 10.7079 27.5082 10.8447 27.2754 10.9379C27.0426 11.0311 26.7932 11.079 26.5413 11.0787Z" fill="#22324B"/>
</g>
<defs>
<filter id="filter0_d" x="0" y="0" width="40" height="39" filterUnits="userSpaceOnUse" color-interpolation-filters="sRGB">
<feFlood flood-opacity="0" result="BackgroundImageFix"/>
<feColorMatrix in="SourceAlpha" type="matrix" values="0 0 0 0 0 0 0 0 0 0 0 0 0 0 0 0 0 0 127 0" result="hardAlpha"/>
<feOffset dx="2" dy="2"/>
<feGaussianBlur stdDeviation="2"/>
<feComposite in2="hardAlpha" operator="out"/>
<feColorMatrix type="matrix" values="0 0 0 0 0 0 0 0 0 0 0 0 0 0 0 0 0 0 0.25 0"/>
<feBlend mode="normal" in2="BackgroundImageFix" result="effect1_dropShadow"/>
<feBlend mode="normal" in="SourceGraphic" in2="effect1_dropShadow" result="shape"/>
</filter>
</defs>
</svg>
