<svg width="40" height="39" viewBox="0 0 40 39" fill="none" xmlns="http://www.w3.org/2000/svg">
<g filter="url(#filter0_d)">
<path d="M18 2C9.16429 2 2 8.9404 2 17.5C2 26.0596 9.16429 33 18 33C26.8357 33 34 26.0596 34 17.5C34 8.9404 26.8357 2 18 2ZM25.6893 13.6838C25.7 13.8464 25.7 14.016 25.7 14.182C25.7 19.261 21.7071 25.1116 14.4107 25.1116C12.1607 25.1116 10.075 24.4785 8.31786 23.3886C8.63929 23.4232 8.94643 23.4371 9.275 23.4371C11.1321 23.4371 12.8393 22.8281 14.2 21.7971C12.4571 21.7625 10.9929 20.6554 10.4929 19.133C11.1036 19.2195 11.6536 19.2195 12.2821 19.0638C11.3847 18.8872 10.5781 18.4151 9.99934 17.7276C9.42056 17.0401 9.10531 16.1798 9.10714 15.2926V15.2442C9.63214 15.5314 10.25 15.7078 10.8964 15.732C10.353 15.3812 9.90735 14.9059 9.59897 14.3482C9.29059 13.7905 9.12901 13.1678 9.12857 12.5352C9.12857 11.819 9.32143 11.1651 9.66786 10.5977C10.6639 11.7855 11.9069 12.7571 13.3159 13.4491C14.725 14.1412 16.2686 14.5382 17.8464 14.6145C17.2857 12.0023 19.3 9.88839 21.7214 9.88839C22.8643 9.88839 23.8929 10.352 24.6179 11.0993C25.5143 10.9367 26.3714 10.6115 27.1357 10.1756C26.8393 11.0647 26.2179 11.8155 25.3929 12.2895C26.1929 12.2065 26.9643 11.992 27.6786 11.691C27.1393 12.459 26.4643 13.1406 25.6893 13.6838Z" fill="#22324B"/>
</g>
<defs>
<filter id="filter0_d" x="0" y="0" width="40" height="39" filterUnits="userSpaceOnUse" color-interpolation-filters="sRGB">
<feFlood flood-opacity="0" result="BackgroundImageFix"/>
<feColorMatrix in="SourceAlpha" type="matrix" values="0 0 0 0 0 0 0 0 0 0 0 0 0 0 0 0 0 0 127 0" result="hardAlpha"/>
<feOffset dx="2" dy="2"/>
<feGaussianBlur stdDeviation="2"/>
<feComposite in2="hardAlpha" operator="out"/>
<feColorMatrix type="matrix" values="0 0 0 0 0 0 0 0 0 0 0 0 0 0 0 0 0 0 0.25 0"/>
<feBlend mode="normal" in2="BackgroundImageFix" result="effect1_dropShadow"/>
<feBlend mode="normal" in="SourceGraphic" in2="effect1_dropShadow" result="shape"/>
</filter>
</defs>
</svg>
