<svg width="85" height="79" viewBox="0 0 85 79" fill="none" xmlns="http://www.w3.org/2000/svg">
<g filter="url(#filter0_d)">
<ellipse cx="42.5" cy="36.5" rx="30.5" ry="27.5" fill="white"/>
</g>
<path d="M61.9495 21.0131C61.7748 20.9956 61.5988 20.9956 61.4242 21.0131H25.5492C25.3193 21.0166 25.0908 21.0502 24.8701 21.113L43.3842 39.0695L61.9495 21.0131Z" fill="#4E6E79"/>
<path d="M63.8463 22.7476L45.1912 40.8415C44.7111 41.3063 44.0617 41.5672 43.3847 41.5672C42.7077 41.5672 42.0582 41.3063 41.5781 40.8415L23.0897 22.8849C23.0329 23.0883 23.0027 23.298 23 23.5088V48.4658C23 49.1277 23.27 49.7625 23.7505 50.2306C24.2311 50.6986 24.8829 50.9615 25.5625 50.9615H61.4375C62.1171 50.9615 62.7689 50.6986 63.2495 50.2306C63.73 49.7625 64 49.1277 64 48.4658V23.5088C63.9898 23.2488 63.9379 22.992 63.8463 22.7476V22.7476ZM27.3178 48.4658H25.5369V46.6814L34.8516 37.6844L36.6581 39.4439L27.3178 48.4658ZM61.4119 48.4658H59.6181L50.2778 39.4439L52.0844 37.6844L61.3991 46.6814L61.4119 48.4658Z" fill="#4E6E79"/>
<defs>
<filter id="filter0_d" x="0" y="0" width="85" height="79" filterUnits="userSpaceOnUse" color-interpolation-filters="sRGB">
<feFlood flood-opacity="0" result="BackgroundImageFix"/>
<feColorMatrix in="SourceAlpha" type="matrix" values="0 0 0 0 0 0 0 0 0 0 0 0 0 0 0 0 0 0 127 0" result="hardAlpha"/>
<feMorphology radius="2" operator="dilate" in="SourceAlpha" result="effect1_dropShadow"/>
<feOffset dy="3"/>
<feGaussianBlur stdDeviation="5"/>
<feComposite in2="hardAlpha" operator="out"/>
<feColorMatrix type="matrix" values="0 0 0 0 0 0 0 0 0 0 0 0 0 0 0 0 0 0 0.25 0"/>
<feBlend mode="normal" in2="BackgroundImageFix" result="effect1_dropShadow"/>
<feBlend mode="normal" in="SourceGraphic" in2="effect1_dropShadow" result="shape"/>
</filter>
</defs>
</svg>
